<svg width="180" height="54" viewBox="0 0 180 54" fill="none" xmlns="http://www.w3.org/2000/svg">
<rect width="50" height="50" rx="25" fill="url(#paint0_linear_1_6)"/>
<path d="M23.312 36.24C23.312 37.36 23.088 38.288 22.64 39.024C22.192 39.76 21.632 40.352 20.96 40.8C20.288 41.216 19.536 41.52 18.704 41.712C17.904 41.904 17.136 42 16.4 42V14.112C16.4 11.872 16.912 10.144 17.936 8.928C18.96 7.712 20.432 7.104 22.352 7.104C23.312 7.104 24.096 7.264 24.704 7.584C25.312 7.904 25.776 8.32 26.096 8.832C26.448 9.344 26.688 9.904 26.816 10.512C26.944 11.088 27.008 11.648 27.008 12.192C27.008 12.48 26.976 12.688 26.912 12.816C26.496 12.464 26 12.288 25.424 12.288C24.944 12.288 24.56 12.384 24.272 12.576C24.016 12.736 23.808 12.96 23.648 13.248C23.52 13.504 23.424 13.808 23.36 14.16C23.328 14.512 23.312 14.88 23.312 15.264V36.24ZM27.536 7.2H28.16C29.984 7.2 31.488 7.776 32.672 8.928C33.856 10.048 34.448 11.68 34.448 13.824V18.864C34.448 20.976 33.92 22.576 32.864 23.664C31.84 24.752 30.592 25.328 29.12 25.392H28.784C27.888 25.392 27.136 25.232 26.528 24.912C25.92 24.592 25.424 24.192 25.04 23.712C24.688 23.2 24.432 22.656 24.272 22.08C24.112 21.472 24.032 20.88 24.032 20.304C24.256 20.496 24.464 20.64 24.656 20.736C24.848 20.8 25.232 20.832 25.808 20.832C26.224 20.832 26.544 20.72 26.768 20.496C27.024 20.24 27.2 19.936 27.296 19.584C27.424 19.232 27.488 18.848 27.488 18.432C27.52 17.984 27.536 17.584 27.536 17.232V7.2ZM33.68 42H33.2C32.368 42 31.536 41.92 30.704 41.76C29.904 41.6 29.168 41.312 28.496 40.896C27.856 40.48 27.328 39.904 26.912 39.168C26.496 38.432 26.288 37.472 26.288 36.288V26.112H27.056C27.856 26.112 28.656 26.208 29.456 26.4C30.256 26.56 30.96 26.864 31.568 27.312C32.208 27.728 32.72 28.304 33.104 29.04C33.488 29.776 33.68 30.72 33.68 31.872V42Z" fill="white"/>
<path d="M65.944 37L65.656 34.444L67.924 33.976V15.076L65.692 14.86V12.124H73.288C75.4 12.124 77.2 12.436 78.688 13.06C80.176 13.66 81.304 14.548 82.072 15.724C82.864 16.9 83.26 18.316 83.26 19.972C83.26 21.82 82.78 23.344 81.82 24.544C80.86 25.72 79.6 26.596 78.04 27.172L81.46 34.048L83.764 34.48V37H78.544L74.512 28C74.08 28.024 73.636 28.048 73.18 28.072C72.724 28.096 72.196 28.108 71.596 28.108V34.012L73.9 34.48V37H65.944ZM71.596 24.94H73.144C74.464 24.94 75.592 24.772 76.528 24.436C77.464 24.076 78.184 23.536 78.688 22.816C79.216 22.072 79.48 21.148 79.48 20.044C79.48 18.988 79.252 18.112 78.796 17.416C78.34 16.696 77.632 16.168 76.672 15.832C75.736 15.472 74.536 15.292 73.072 15.292H71.596V24.94ZM93.9599 37.144C92.3999 37.144 91.0199 36.796 89.8199 36.1C88.6199 35.404 87.6719 34.408 86.9759 33.112C86.3039 31.816 85.9679 30.28 85.9679 28.504C85.9679 26.608 86.3159 25 87.0119 23.68C87.7319 22.336 88.6799 21.316 89.8559 20.62C91.0319 19.9 92.3399 19.54 93.7799 19.54C94.7639 19.54 95.6879 19.72 96.5519 20.08C97.4399 20.44 98.1599 20.98 98.7119 21.7C99.2639 22.396 99.5399 23.284 99.5399 24.364C99.5399 25.492 99.2759 26.428 98.7479 27.172C98.2439 27.916 97.5599 28.504 96.6959 28.936C95.8319 29.368 94.8719 29.68 93.8159 29.872C92.7599 30.04 91.6919 30.124 90.6119 30.124L89.5319 30.088C89.6999 31.312 90.1679 32.344 90.9359 33.184C91.7039 34 92.8679 34.408 94.4279 34.408C95.3639 34.408 96.1799 34.24 96.8759 33.904C97.5959 33.568 98.1959 33.196 98.6759 32.788L99.4319 35.344C99.0959 35.656 98.6519 35.956 98.0999 36.244C97.5479 36.508 96.9119 36.724 96.1919 36.892C95.4959 37.06 94.7519 37.144 93.9599 37.144ZM89.4959 27.496L90.3959 27.532C90.9479 27.532 91.5479 27.496 92.1959 27.424C92.8679 27.352 93.4919 27.22 94.0679 27.028C94.6679 26.812 95.1479 26.5 95.5079 26.092C95.8919 25.66 96.0839 25.108 96.0839 24.436C96.0839 23.692 95.8439 23.152 95.3639 22.816C94.8839 22.48 94.3559 22.312 93.7799 22.312C92.9639 22.312 92.2439 22.552 91.6199 23.032C90.9959 23.488 90.4919 24.112 90.1079 24.904C89.7479 25.696 89.5439 26.56 89.4959 27.496ZM108.008 37.108C106.904 37.108 105.92 36.916 105.056 36.532C104.192 36.148 103.484 35.668 102.932 35.092C102.38 34.492 101.972 33.916 101.708 33.364L105.452 31.924L106.352 34.012C106.472 34.06 106.688 34.132 107 34.228C107.336 34.324 107.744 34.372 108.224 34.372C108.536 34.372 108.872 34.3 109.232 34.156C109.616 34.012 109.94 33.796 110.204 33.508C110.468 33.196 110.6 32.788 110.6 32.284C110.6 31.756 110.432 31.324 110.096 30.988C109.784 30.652 109.352 30.376 108.8 30.16C108.248 29.92 107.648 29.668 107 29.404C105.512 28.876 104.384 28.204 103.616 27.388C102.872 26.572 102.5 25.6 102.5 24.472C102.5 23.488 102.752 22.624 103.256 21.88C103.784 21.136 104.492 20.56 105.38 20.152C106.268 19.72 107.228 19.504 108.26 19.504C109.388 19.504 110.348 19.696 111.14 20.08C111.956 20.44 112.616 20.896 113.12 21.448C113.648 22 114.032 22.528 114.272 23.032L110.528 24.472L109.664 22.636C109.592 22.588 109.436 22.516 109.196 22.42C108.956 22.324 108.62 22.276 108.188 22.276C107.828 22.276 107.48 22.348 107.144 22.492C106.808 22.612 106.52 22.804 106.28 23.068C106.064 23.332 105.956 23.68 105.956 24.112C105.956 24.568 106.124 24.952 106.46 25.264C106.82 25.576 107.324 25.876 107.972 26.164C108.62 26.428 109.364 26.74 110.204 27.1C111.404 27.58 112.34 28.216 113.012 29.008C113.708 29.776 114.056 30.76 114.056 31.96C114.056 33.064 113.756 34.012 113.156 34.804C112.58 35.572 111.824 36.148 110.888 36.532C109.976 36.916 109.016 37.108 108.008 37.108ZM124.722 37.144C123.162 37.144 121.782 36.796 120.582 36.1C119.382 35.404 118.434 34.408 117.738 33.112C117.066 31.816 116.73 30.28 116.73 28.504C116.73 26.608 117.078 25 117.774 23.68C118.494 22.336 119.442 21.316 120.618 20.62C121.794 19.9 123.102 19.54 124.542 19.54C125.526 19.54 126.45 19.72 127.314 20.08C128.202 20.44 128.922 20.98 129.474 21.7C130.026 22.396 130.302 23.284 130.302 24.364C130.302 25.492 130.038 26.428 129.51 27.172C129.006 27.916 128.322 28.504 127.458 28.936C126.594 29.368 125.634 29.68 124.578 29.872C123.522 30.04 122.454 30.124 121.374 30.124L120.294 30.088C120.462 31.312 120.93 32.344 121.698 33.184C122.466 34 123.63 34.408 125.19 34.408C126.126 34.408 126.942 34.24 127.638 33.904C128.358 33.568 128.958 33.196 129.438 32.788L130.194 35.344C129.858 35.656 129.414 35.956 128.862 36.244C128.31 36.508 127.674 36.724 126.954 36.892C126.258 37.06 125.514 37.144 124.722 37.144ZM120.258 27.496L121.158 27.532C121.71 27.532 122.31 27.496 122.958 27.424C123.63 27.352 124.254 27.22 124.83 27.028C125.43 26.812 125.91 26.5 126.27 26.092C126.654 25.66 126.846 25.108 126.846 24.436C126.846 23.692 126.606 23.152 126.126 22.816C125.646 22.48 125.118 22.312 124.542 22.312C123.726 22.312 123.006 22.552 122.382 23.032C121.758 23.488 121.254 24.112 120.87 24.904C120.51 25.696 120.306 26.56 120.258 27.496ZM133.225 37L132.793 35.056L134.917 34.48V22.312L133.045 22.384L132.685 20.296L137.005 19.504L138.085 21.196C138.589 20.644 139.165 20.224 139.813 19.936C140.485 19.648 141.133 19.504 141.757 19.504C142.813 19.504 143.725 19.756 144.493 20.26C145.261 20.764 145.825 21.436 146.185 22.276L142.621 24.076L141.469 22.348C141.109 22.348 140.677 22.48 140.173 22.744C139.669 22.984 139.225 23.392 138.841 23.968C138.481 24.544 138.301 25.312 138.301 26.272V34.048L142.981 35.056V37H133.225ZM153.141 37L148.209 22.024H146.589L146.301 19.828L151.197 19.504L155.481 33.04L159.585 22.024H158.037L157.785 19.828L162.285 19.504L162.969 20.8L156.885 37H153.141ZM172.464 37.144C170.904 37.144 169.524 36.796 168.324 36.1C167.124 35.404 166.176 34.408 165.48 33.112C164.808 31.816 164.472 30.28 164.472 28.504C164.472 26.608 164.82 25 165.516 23.68C166.236 22.336 167.184 21.316 168.36 20.62C169.536 19.9 170.844 19.54 172.284 19.54C173.268 19.54 174.192 19.72 175.056 20.08C175.944 20.44 176.664 20.98 177.216 21.7C177.768 22.396 178.044 23.284 178.044 24.364C178.044 25.492 177.78 26.428 177.252 27.172C176.748 27.916 176.064 28.504 175.2 28.936C174.336 29.368 173.376 29.68 172.32 29.872C171.264 30.04 170.196 30.124 169.116 30.124L168.036 30.088C168.204 31.312 168.672 32.344 169.44 33.184C170.208 34 171.372 34.408 172.932 34.408C173.868 34.408 174.684 34.24 175.38 33.904C176.1 33.568 176.7 33.196 177.18 32.788L177.936 35.344C177.6 35.656 177.156 35.956 176.604 36.244C176.052 36.508 175.416 36.724 174.696 36.892C174 37.06 173.256 37.144 172.464 37.144ZM168 27.496L168.9 27.532C169.452 27.532 170.052 27.496 170.7 27.424C171.372 27.352 171.996 27.22 172.572 27.028C173.172 26.812 173.652 26.5 174.012 26.092C174.396 25.66 174.588 25.108 174.588 24.436C174.588 23.692 174.348 23.152 173.868 22.816C173.388 22.48 172.86 22.312 172.284 22.312C171.468 22.312 170.748 22.552 170.124 23.032C169.5 23.488 168.996 24.112 168.612 24.904C168.252 25.696 168.048 26.56 168 27.496Z" fill="white"/>
<defs>
<linearGradient id="paint0_linear_1_6" x1="25" y1="0" x2="25" y2="50" gradientUnits="userSpaceOnUse">
<stop stop-color="#FF7A00"/>
<stop offset="1" stop-color="#974800"/>
</linearGradient>
</defs>
</svg>
